<?xml version="1.0" encoding="UTF-8"?>
<svg id="_图层_2" data-name="图层 2" xmlns="http://www.w3.org/2000/svg" viewBox="0 0 290.68 97.39">
  <defs>
    <style>
      .cls-1 {
        font-family: BlondeFraktur, 'Blonde Fraktur';
        font-size: 53px;
      }
    </style>
  </defs>
  <g id="_图层_3" data-name="图层 3">
    <text class="cls-1" transform="translate(16.39 60.78) rotate(-16.25)"><tspan x="0" y="0">B</tspan></text>
    <text class="cls-1" transform="translate(52.52 50.81) rotate(-9.74)"><tspan x="0" y="0">r</tspan></text>
    <text class="cls-1" transform="translate(68.17 48.06) rotate(-5.27)"><tspan x="0" y="0">o</tspan></text>
    <text class="cls-1" transform="translate(85.42 46.49) rotate(-.76)"><tspan x="0" y="0">t</tspan></text>
    <text class="cls-1" transform="translate(99.81 46.14) rotate(4.26)"><tspan x="0" y="0">h</tspan></text>
    <text class="cls-1" transform="translate(119.26 47.65) rotate(9.33)"><tspan x="0" y="0">e</tspan></text>
    <text class="cls-1" transform="translate(134.63 50.21) rotate(12.96)"><tspan x="0" y="0">r</tspan></text>
    <text class="cls-1" transform="translate(150.75 54.09) rotate(13.46)"><tspan x="0" y="0">h</tspan></text>
    <text class="cls-1" transform="translate(172.42 59.31) rotate(8.57)"><tspan x="0" y="0">o</tspan></text>
    <text class="cls-1" transform="translate(193.03 62.26) rotate(1.76)"><tspan x="0" y="0">o</tspan></text>
    <text class="cls-1" transform="translate(213.74 62.84) rotate(-4.75)"><tspan x="0" y="0">d</tspan></text>
    <text class="cls-1" transform="translate(237.85 60.63) rotate(-11.42)"><tspan x="0" y="0">h</tspan></text>
    <text class="cls-1" transform="translate(260.1 55.96) rotate(-17.36)"><tspan x="0" y="0">k</tspan></text>
  </g>
</svg>